<?xml version="1.0" standalone="no"?>
<!DOCTYPE svg PUBLIC "-//W3C//DTD SVG 20010904//EN"
 "http://www.w3.org/TR/2001/REC-SVG-20010904/DTD/svg10.dtd">
<svg version="1.0" xmlns="http://www.w3.org/2000/svg"
 width="220.000000pt" height="220.000000pt" viewBox="0 0 220.000000 220.000000"
 preserveAspectRatio="xMidYMid meet">
<metadata>
Created by potrace 1.14, written by Peter Selinger 2001-2017
</metadata>
<g transform="translate(0.000000,220.000000) scale(0.100000,-0.100000)"
fill="#000000" stroke="none">
<path d="M515 2183 c-33 -7 -67 -16 -75 -20 -8 -3 -17 -7 -21 -7 -3 -1 -36
-17 -75 -36 -98 -49 -216 -170 -266 -270 -34 -70 -50 -113 -66 -185 -4 -16 -7
-275 -7 -575 0 -544 0 -545 23 -620 36 -115 86 -196 172 -280 95 -93 181 -139
332 -178 21 -6 262 -9 585 -8 610 3 583 0 733 74 106 52 221 168 274 277 73
147 73 156 71 762 -1 296 -5 547 -8 558 -4 11 -11 38 -16 59 -36 149 -181 319
-333 394 -49 24 -92 40 -98 37 -5 -3 -10 -2 -10 3 0 5 -6 9 -12 10 -7 0 -24 4
-38 8 -14 4 -268 8 -565 9 -427 2 -553 -1 -600 -12z"/>
</g>
</svg>
